<?xml version="1.0" encoding="utf-8"?>
<!-- Generator: Adobe Illustrator 27.0.0, SVG Export Plug-In . SVG Version: 6.00 Build 0)  -->
<svg version="1.1" id="Layer_1" xmlns="http://www.w3.org/2000/svg" xmlns:xlink="http://www.w3.org/1999/xlink" x="0px" y="0px"
	 viewBox="0 0 1920 1080" style="enable-background:new 0 0 1920 1080;" xml:space="preserve">
<style type="text/css">
	.st0{display:none;fill:#292D33;stroke:#000000;stroke-width:2.8505;stroke-miterlimit:10;}
	.st1{fill:#FFFFFF;}
	.st2{font-family:'GoogleSansDisplay-Regular';}
	.st3{font-size:131.2198px;}
	.st4{letter-spacing:-1;}
	.st5{letter-spacing:1;}
	.st6{font-size:92.2485px;}
</style>
<rect x="0" class="st0" width="1929.3" height="1084.8"/>
<g>
	<g>
		<g>
			<text transform="matrix(1 0 0 1 24.999 699.0392)"><tspan x="0" y="0" class="st1 st2 st3 st4">Google </tspan><tspan x="455.9" y="0" class="st1 st2 st3">D</tspan><tspan x="547.2" y="0" class="st1 st2 st3 st4">e</tspan><tspan x="618" y="0" class="st1 st2 st3">v</tspan><tspan x="683.3" y="0" class="st1 st2 st3 st4">elo</tspan><tspan x="854.6" y="0" class="st1 st2 st3 st5">p</tspan><tspan x="932.8" y="0" class="st1 st2 st3 st4">er Student Clubs</tspan></text>
		</g>
	</g>
	<g>
		<g>
			<text transform="matrix(1 0 0 1 615.8247 854.8517)" class="st1 st2 st6">University of Hail</text>
		</g>
	</g>
	<g>
		<path class="st1" d="M910.3,400.2l-146.7-84.7c-6.6-3.8-13.8-5.6-20.9-5.6c-14.4,0-28.5,7.5-36.2,20.9
			c-11.5,20-4.7,45.5,15.3,57.1l146.7,84.7c6.6,3.8,13.8,5.6,20.9,5.6c14.4,0,28.5-7.5,36.2-20.9
			C937.2,437.3,930.3,411.7,910.3,400.2z"/>
		<path class="st1" d="M1202.9,315.5l-146.7-84.7c-6.6-3.8-13.8-5.6-20.9-5.6c-14.4,0-28.5,7.5-36.2,20.9
			c-11.5,20-4.7,45.5,15.3,57.1l146.7,84.7c6.6,3.8,13.8,5.6,20.9,5.6c14.4,0,28.5-7.5,36.2-20.9
			C1229.8,352.6,1222.9,327,1202.9,315.5z"/>
		<g>
			<path class="st1" d="M1155.4,397.9l-68.5-39.5l-72.4,41.8c-20,11.5-26.8,37.1-15.3,57.1c7.7,13.4,21.8,20.9,36.2,20.9
				c7.1,0,14.3-1.8,20.9-5.6l117.9-68.1C1167.6,403.5,1161.2,401.3,1155.4,397.9z"/>
		</g>
		<g>
			<path class="st1" d="M769.4,305.4l68.5,39.5l72.4-41.8c20-11.5,26.8-37.1,15.3-57.1c-11.5-20-37.1-26.8-57.1-15.3l-117.9,68.1
				C757.2,299.8,763.6,302,769.4,305.4z"/>
		</g>
	</g>
</g>
</svg>
